<mxfile host="app.diagrams.net" modified="2021-05-08T09:29:39.149Z" agent="5.0 (Windows NT 10.0; Win64; x64) AppleWebKit/537.36 (KHTML, like Gecko) Chrome/90.0.4430.93 Safari/537.36" etag="xE0i1Lmg4cj9neeQ_ZZK" version="14.6.10" type="github">
  <diagram id="jADmEvy_qSzp0HZjvwiZ" name="Page-1">
    <mxGraphModel dx="1422" dy="705" grid="1" gridSize="10" guides="1" tooltips="1" connect="1" arrows="1" fold="1" page="1" pageScale="1" pageWidth="827" pageHeight="1169" math="0" shadow="0">
      <root>
        <mxCell id="0" />
        <mxCell id="1" parent="0" />
        <mxCell id="07qIx6OSMIJO634W7m6B-1" value="" style="shape=folder;fontStyle=1;spacingTop=10;tabWidth=40;tabHeight=14;tabPosition=left;html=1;" vertex="1" parent="1">
          <mxGeometry x="30" y="130" width="330" height="220" as="geometry" />
        </mxCell>
        <mxCell id="07qIx6OSMIJO634W7m6B-2" value="&lt;b&gt;ho.control&lt;/b&gt;" style="text;html=1;align=center;verticalAlign=middle;resizable=0;points=[];autosize=1;strokeColor=none;" vertex="1" parent="1">
          <mxGeometry x="30" y="140" width="70" height="20" as="geometry" />
        </mxCell>
        <mxCell id="07qIx6OSMIJO634W7m6B-3" value="" style="shape=folder;fontStyle=1;spacingTop=10;tabWidth=40;tabHeight=14;tabPosition=left;html=1;" vertex="1" parent="1">
          <mxGeometry x="450" y="140" width="330" height="220" as="geometry" />
        </mxCell>
        <mxCell id="07qIx6OSMIJO634W7m6B-4" value="&lt;b&gt;ho.gui.views&lt;/b&gt;" style="text;html=1;align=center;verticalAlign=middle;resizable=0;points=[];autosize=1;strokeColor=none;" vertex="1" parent="1">
          <mxGeometry x="450" y="150" width="90" height="20" as="geometry" />
        </mxCell>
        <mxCell id="07qIx6OSMIJO634W7m6B-6" value="" style="shape=folder;fontStyle=1;spacingTop=10;tabWidth=40;tabHeight=14;tabPosition=left;html=1;" vertex="1" parent="1">
          <mxGeometry x="30" y="390" width="330" height="220" as="geometry" />
        </mxCell>
        <mxCell id="07qIx6OSMIJO634W7m6B-7" value="&lt;b&gt;ho.model&lt;/b&gt;" style="text;html=1;align=center;verticalAlign=middle;resizable=0;points=[];autosize=1;strokeColor=none;" vertex="1" parent="1">
          <mxGeometry x="30" y="400" width="70" height="20" as="geometry" />
        </mxCell>
        <mxCell id="07qIx6OSMIJO634W7m6B-8" value="" style="shape=folder;fontStyle=1;spacingTop=10;tabWidth=40;tabHeight=14;tabPosition=left;html=1;" vertex="1" parent="1">
          <mxGeometry x="440" y="400" width="330" height="220" as="geometry" />
        </mxCell>
        <mxCell id="07qIx6OSMIJO634W7m6B-9" value="&lt;b&gt;ho.model.dto&lt;/b&gt;" style="text;html=1;align=center;verticalAlign=middle;resizable=0;points=[];autosize=1;strokeColor=none;" vertex="1" parent="1">
          <mxGeometry x="440" y="410" width="90" height="20" as="geometry" />
        </mxCell>
        <mxCell id="07qIx6OSMIJO634W7m6B-10" value="" style="shape=folder;fontStyle=1;spacingTop=10;tabWidth=40;tabHeight=14;tabPosition=left;html=1;" vertex="1" parent="1">
          <mxGeometry x="440" y="650" width="330" height="220" as="geometry" />
        </mxCell>
        <mxCell id="07qIx6OSMIJO634W7m6B-11" value="&lt;b&gt;ho.model.dto&lt;/b&gt;" style="text;html=1;align=center;verticalAlign=middle;resizable=0;points=[];autosize=1;strokeColor=none;" vertex="1" parent="1">
          <mxGeometry x="440" y="660" width="90" height="20" as="geometry" />
        </mxCell>
      </root>
    </mxGraphModel>
  </diagram>
</mxfile>
